<?xml version="1.0" encoding="utf-8"?>
<!-- Generator: Adobe Illustrator 17.1.0, SVG Export Plug-In . SVG Version: 6.00 Build 0)  -->
<!DOCTYPE svg PUBLIC "-//W3C//DTD SVG 1.0//EN" "http://www.w3.org/TR/2001/REC-SVG-20010904/DTD/svg10.dtd">
<svg version="1.0" id="Layer_1" xmlns="http://www.w3.org/2000/svg" xmlns:xlink="http://www.w3.org/1999/xlink" x="0px" y="0px"
	 viewBox="0 0 36 36" enable-background="new 0 0 36 36" xml:space="preserve">
<path d="M32.7,3.3H3.3c-1.8,0-3.3,1.5-3.3,3.3v4.9h3.3V6.6h29.4v22.9H21.3v3.3h11.4c1.8,0,3.3-1.5,3.3-3.3V6.6
	C35.9,4.8,34.5,3.3,32.7,3.3z M0.1,27.7v4.9H5C5,29.9,2.9,27.7,0.1,27.7z M0.1,21.2v3.3c4.6,0,8.2,3.6,8.2,8.2h3.3
	C11.5,26.3,6.4,21.2,0.1,21.2z M0.1,14.7V18c8.2,0,14.7,6.5,14.7,14.7H18C18,22.7,10,14.7,0.1,14.7z"/>
</svg>
