<?xml version="1.0" encoding="utf-8"?>
<!-- Generator: Adobe Illustrator 17.1.0, SVG Export Plug-In . SVG Version: 6.00 Build 0)  -->
<!DOCTYPE svg PUBLIC "-//W3C//DTD SVG 1.1//EN" "http://www.w3.org/Graphics/SVG/1.1/DTD/svg11.dtd">
<svg version="1.1" id="Layer_1" xmlns="http://www.w3.org/2000/svg" xmlns:xlink="http://www.w3.org/1999/xlink" x="0px" y="0px"
	 width="516.6px" height="516.9px" viewBox="0 0 516.6 516.9" enable-background="new 0 0 516.6 516.9" xml:space="preserve">
<path d="M276.1,258.6L513,21.8c4.8-4.8,4.8-12.5,0-17.3l-0.3-0.3c-4.8-4.8-12.5-4.8-17.3,0L258.5,240.9L21.3,3.7
	C16.5-1.1,8.8-1.1,4,3.7L3.7,4C-1,8.7-1,16.5,3.7,21.2L241,258.5L3.6,495.7c-4.8,4.8-4.8,12.5,0,17.3l0.3,0.3
	c4.8,4.8,12.5,4.8,17.3,0L258.5,276l236.8,237c4.8,4.8,12.5,4.8,17.3,0l0.3-0.3c4.8-4.8,4.8-12.5,0-17.3L276.1,258.6z"/>
</svg>
