<?xml version="1.0" encoding="utf-8"?>
<!-- Generator: Adobe Illustrator 17.1.0, SVG Export Plug-In . SVG Version: 6.00 Build 0)  -->
<!DOCTYPE svg PUBLIC "-//W3C//DTD SVG 1.0//EN" "http://www.w3.org/TR/2001/REC-SVG-20010904/DTD/svg10.dtd">
<svg version="1.0" id="Layer_1" xmlns="http://www.w3.org/2000/svg" xmlns:xlink="http://www.w3.org/1999/xlink" x="0px" y="0px"
	 viewBox="0 0 612 792" enable-background="new 0 0 612 792" xml:space="preserve">
<g>
	<path d="M304,87C134.5,87-3,224.5-3,394s137.5,307,307,307s307-137.5,307-307S473.5,87,304,87z M304,662.6
		C155.9,662.6,35.4,542.1,35.4,394S155.9,125.4,304,125.4S572.6,245.9,572.6,394S452.1,662.6,304,662.6z M399.4,405.8
		c7.3,12.4,11,26.8,11,43.3c0,25.4-7.6,46.5-22.7,63.4c-15.1,16.9-36.9,26.9-65.4,29.9v43.4h-36.4v-43.2
		c-47.6-4.9-77-32.5-88.3-82.9l56.2-14.7c5.2,31.7,22.4,47.5,51.7,47.5c13.7,0,23.8-3.4,30.2-10.2s9.7-15,9.7-24.5
		c0-9.9-3.2-17.5-9.7-22.6c-6.4-5.1-20.8-11.6-43-19.5c-20-6.9-35.6-13.8-46.8-20.6c-11.2-6.7-20.4-16.2-27.4-28.4
		c-7-12.2-10.5-26.5-10.5-42.6c0-21.2,6.3-40.4,18.8-57.4c12.5-17,32.2-27.4,59.1-31.1v-33.5h36.4v33.5c40.6,4.9,66.9,27.8,78.9,69
		l-50.1,20.5c-9.8-28.2-24.8-42.3-45.3-42.3c-10.3,0-18.5,3.1-24.7,9.4c-6.2,6.3-9.3,13.9-9.3,22.9c0,9.1,3,16.2,9,21.1
		c6,4.9,18.8,10.9,38.5,18.1c21.6,7.9,38.5,15.3,50.8,22.3C382.3,383.8,392.1,393.5,399.4,405.8z"/>
</g>
</svg>
