<?xml version="1.0" encoding="utf-8"?>
<!-- Generator: Adobe Illustrator 17.1.0, SVG Export Plug-In . SVG Version: 6.00 Build 0)  -->
<!DOCTYPE svg PUBLIC "-//W3C//DTD SVG 1.1//EN" "http://www.w3.org/Graphics/SVG/1.1/DTD/svg11.dtd">
<svg version="1.1" id="Layer_1" xmlns="http://www.w3.org/2000/svg" xmlns:xlink="http://www.w3.org/1999/xlink" x="0px" y="0px"
	 width="513.1px" height="512.8px" viewBox="0 0 513.1 512.8" enable-background="new 0 0 513.1 512.8" xml:space="preserve">
<path id="path13066" d="M455.5,268.6c-4.4,46.2-22,92.4-59.4,127.6c-37.4,37.4-85.8,57.2-138.6,57.2s-103.4-19.8-140.9-57.2
	c-37.4-37.4-57.2-88-57.2-140.9s19.8-101.2,57.2-138.6s88-59.4,140.9-59.4s101.2,22,138.6,59.4c6.6,6.6,13.2,13.2,19.8,19.8
	l37.4-46.2c-4.4-4.4-8.8-11-15.4-15.4C389.5,26.5,325.7,0,257.4,0S123.2,26.5,74.8,74.8S-0.1,187.1-0.1,255.3S26.4,389.6,74.8,438
	s114.4,74.8,182.7,74.8c68.2,0,132-26.4,180.5-74.8c63.8-63.8,85.8-151.9,70.4-233.3L455.5,268.6"/>
</svg>
