<?xml version="1.0" encoding="utf-8"?>
<!-- Generator: Adobe Illustrator 17.1.0, SVG Export Plug-In . SVG Version: 6.00 Build 0)  -->
<!DOCTYPE svg PUBLIC "-//W3C//DTD SVG 1.1//EN" "http://www.w3.org/Graphics/SVG/1.1/DTD/svg11.dtd">
<svg version="1.1" id="Layer_1" xmlns="http://www.w3.org/2000/svg" xmlns:xlink="http://www.w3.org/1999/xlink" x="0px" y="0px"
	 width="511.7px" height="380.2px" viewBox="0 0 511.7 380.2" enable-background="new 0 0 511.7 380.2" xml:space="preserve">
<path id="path13068" d="M175.5,380.2L175.5,380.2c-49.6,0-79.3-32.2-84.2-39.6L12,258.8c-12.4-12.4-12.4-32.2,0-42.1
	c12.4-12.4,32.2-12.4,44.6,0l79.3,84.2l0,0c0,0,17.3,17.3,39.6,17.3c19.8,0,39.6-12.4,59.5-34.7L460.4,11c9.9-12.4,29.7-14.9,42.1-5
	c14.9,12.4,14.9,29.7,5,44.6l-227.9,275C247.3,360.3,212.6,380.2,175.5,380.2"/>
</svg>
