<?xml version="1.0" encoding="utf-8"?>
<!-- Generator: Adobe Illustrator 17.1.0, SVG Export Plug-In . SVG Version: 6.00 Build 0)  -->
<!DOCTYPE svg PUBLIC "-//W3C//DTD SVG 1.0//EN" "http://www.w3.org/TR/2001/REC-SVG-20010904/DTD/svg10.dtd">
<svg version="1.0" id="Layer_1" xmlns="http://www.w3.org/2000/svg" xmlns:xlink="http://www.w3.org/1999/xlink" x="0px" y="0px"
	 viewBox="0 0 36 36" enable-background="new 0 0 36 36" xml:space="preserve">
<path d="M32.4,14.4c2,0,3.6,1.6,3.6,3.6s-1.6,3.6-3.6,3.6c-2,0-3.6-1.6-3.6-3.6C28.8,16,30.4,14.4,32.4,14.4z M18,14.4
	c2,0,3.6,1.6,3.6,3.6S20,21.6,18,21.6S14.4,20,14.4,18S16,14.4,18,14.4z M3.6,14.4c2,0,3.6,1.6,3.6,3.6s-1.6,3.6-3.6,3.6S0,20,0,18
	S1.6,14.4,3.6,14.4z"/>
</svg>
