<?xml version="1.0" encoding="utf-8"?>
<!-- Generator: Adobe Illustrator 18.1.1, SVG Export Plug-In . SVG Version: 6.00 Build 0)  -->
<svg version="1.1" id="Layer_1" xmlns="http://www.w3.org/2000/svg" xmlns:xlink="http://www.w3.org/1999/xlink" x="0px" y="0px"
	 viewBox="0 0 600 600" enable-background="new 0 0 600 600" xml:space="preserve">
<path d="M392.9,194.9v-2.8c0-21-17-38-38-38H305V59.2h-17.2v94.9h-55.7c-21,0-38,17-38,38v2.8c0,21,17,38,38,38h55.7V545H305V232.9
	h49.9C375.9,232.9,392.9,215.8,392.9,194.9z M354.9,222.9H295h-62.9c-15.4,0-28-12.6-28-28v-2.8c0-15.4,12.6-28,28-28H355
	c15.4,0,28,12.6,28,28v2.8C382.9,210.3,370.4,222.9,354.9,222.9z M524.9,237h-52.8V59.2h-17.2V237h-52.8c-21,0-38,17-38,38v2.8
	c0,21,17,38,38,38h52.8V545h17.2V315.8h52.8c21,0,38-17,38-38V275C562.9,254,545.9,237,524.9,237z M552.9,277.8
	c0,15.4-12.6,28-28,28h-62.8h-60c-15.4,0-28-12.6-28-28V275c0-15.4,12.6-28,28-28H525c15.4,0,28,12.6,28,28v2.8H552.9z M203.4,390.2
	h-56.6v-331h-17.2v331h-49c-21,0-38,17-38,38v2.8c0,21,17,38,38,38h49v76h17.2v-76h56.6c21,0,38-17,38-38v-2.8
	C241.4,407.3,224.4,390.2,203.4,390.2z M231.4,431c0,15.4-12.6,28-28,28h-66.6H80.6c-15.4,0-28-12.6-28-28v-2.8
	c0-15.4,12.6-28,28-28h122.9c15.4,0,28,12.6,28,28v2.8H231.4z"/>
</svg>
