<?xml version="1.0" encoding="utf-8"?>
<!-- Generator: Adobe Illustrator 17.1.0, SVG Export Plug-In . SVG Version: 6.00 Build 0)  -->
<!DOCTYPE svg PUBLIC "-//W3C//DTD SVG 1.1//EN" "http://www.w3.org/Graphics/SVG/1.1/DTD/svg11.dtd">
<svg version="1.1" id="Layer_1" xmlns="http://www.w3.org/2000/svg" xmlns:xlink="http://www.w3.org/1999/xlink" x="0px" y="0px"
	 width="492.6px" height="485.1px" viewBox="0 0 492.6 485.1" enable-background="new 0 0 492.6 485.1" xml:space="preserve">
<path d="M245.8,485l-9.2-6.6c-32.4-23.4-81.4-58.7-165.5-148.3l-0.4-0.5C16.5,263.7-5.1,221.5,1,130.8c2-28.5,15.1-60.2,35.2-84.6
	C53.4,25.2,83.4,0.1,128,0.1c34.1,0,66.2,9.5,90.4,26.8c11.5,8.2,20.6,17.8,26.8,27.8c2.9-4.2,6.4-8.4,10.4-12.5
	c19.9-20.1,58.2-41.6,105.8-41.6c43.4,0,78.8,17.4,102.5,50.3c18.2,25.4,28.7,59.3,28.7,93.1c0,54.2-19.5,104.2-61.3,157.2
	c-54.6,69.3-114.6,124.3-152.6,156.3l0,0c-10.5,8.8-19.3,15.9-25.8,21l-1.6,1.3L245.8,485z M85.2,317.3
	c80,85.2,127.5,120.4,159.3,143.3l22.1-18c37.4-31.5,96.2-85.5,149.8-153.4c39.6-50.2,57.2-95,57.2-145.4c0-29.5-9.4-60.1-25.1-82
	c-20.2-28.1-49.5-42.4-87.1-42.4c-41.8,0-75.8,19.4-92.3,36c-9.5,9.6-14.9,19.7-14.8,27.9l-19,0.2c-0.1-13.3-10.8-29.1-27.9-41.3
	c-21-15-49.2-23.2-79.3-23.2C90.9,19,65.6,40.3,51,58.1C33.6,79.3,21.8,107.6,20.1,132C14.3,214.9,32.2,252.7,85.2,317.3z"/>
</svg>
