<?xml version="1.0" encoding="utf-8"?>
<!-- Generator: Adobe Illustrator 17.1.0, SVG Export Plug-In . SVG Version: 6.00 Build 0)  -->
<!DOCTYPE svg PUBLIC "-//W3C//DTD SVG 1.1//EN" "http://www.w3.org/Graphics/SVG/1.1/DTD/svg11.dtd">
<svg version="1.1" id="Layer_1" xmlns="http://www.w3.org/2000/svg" xmlns:xlink="http://www.w3.org/1999/xlink" x="0px" y="0px"
	 viewBox="0 0 612 792" enable-background="new 0 0 612 792" xml:space="preserve">
<path fill-rule="evenodd" clip-rule="evenodd" d="M306,703C136.4,703-1,565.6-1,396C-1,226.5,136.4,89,306,89s307,137.5,307,307
	C613,565.6,475.6,703,306,703z M306,146.6C168.2,146.6,56.6,258.2,56.6,396c0,137.8,111.7,249.4,249.4,249.4S555.4,533.8,555.4,396
	C555.4,258.2,443.8,146.6,306,146.6z"/>
<path d="M307.4,251.4c23.3-0.2,44.3,4.7,62.9,17.7c25.1,17.5,36.6,47.3,29.1,75.7c-3.9,14.6-12.9,26-23.7,36
	c-9.4,8.7-18.6,17.6-28.4,25.8c-12.6,10.5-20.3,23.3-23,39.7c-2.6,15.9-13.6,22.7-28.9,19.2c-9.1-2.1-15.6-9-16.7-18.6
	c-2.9-25.2,6.3-45.6,24.6-62.4c10.4-9.5,21-18.8,31.2-28.5c10.3-9.7,17-21,13.7-35.8c-3.7-16.5-18.8-28.1-37.1-28.6
	c-4.7-0.1-9.4,0.2-14,0.9c-9.7,1.5-18.2,5.6-23.3,14.2c-5,8.6-9,17.8-13.3,26.8c-1.5,3-2.4,6.4-4,9.3c-5.8,10.3-16.5,14.5-27.8,11.2
	c-10.7-3.1-18.7-13.2-18.2-24.1c1.1-24.1,12.9-42.7,31.3-57.3C261.2,257.4,283.7,251,307.4,251.4z M332.2,512.2
	c0-16.2-12-28.3-28-28.4c-17.4,0-29.5,11.6-29.5,28.4c0,17.1,11.4,28.4,28.7,28.4C320.6,540.7,332.2,529.2,332.2,512.2z"/>
</svg>
