<?xml version="1.0" encoding="utf-8"?>
<!-- Generator: Adobe Illustrator 17.1.0, SVG Export Plug-In . SVG Version: 6.00 Build 0)  -->
<!DOCTYPE svg PUBLIC "-//W3C//DTD SVG 1.1//EN" "http://www.w3.org/Graphics/SVG/1.1/DTD/svg11.dtd">
<svg version="1.1" id="Layer_1" xmlns="http://www.w3.org/2000/svg" xmlns:xlink="http://www.w3.org/1999/xlink" x="0px" y="0px"
	 viewBox="0 0 612 792" enable-background="new 0 0 612 792" xml:space="preserve">
<path d="M70.6,442.3c-7.6,7.6-18.4,11-30.3,11H-1V338.7h41.4c11.9,0,22.7,3.4,30.3,10.9c12.9,12.9,11.6,28.7,11.6,45.9
	C82.2,412.7,83.5,429.4,70.6,442.3z M55,365.7c-3.9-4.7-9-7.1-16.7-7.1H21.4v74.7h16.9c7.7,0,12.9-2.4,16.7-7.1
	c4.2-5.2,4.8-13.4,4.8-30.7C59.8,378.1,59.2,370.9,55,365.7z M102.9,453.3V338.7h22.4v114.5H102.9z M208.6,453.3l-22.4-45.7h-16.1
	v45.7h-22.4V338.7h44.9c23.3,0,37.1,15.9,37.1,35.1c0,16.1-9.8,26.1-20.9,30.1l25.6,49.4H208.6z M191.2,358.7h-21.1v30.2h21.1
	c9.8,0,16.3-6.3,16.3-15.1C207.5,365,201.1,358.7,191.2,358.7z M248.9,453.3V338.7h75.4v19.9h-53.1v26.9h45.2v19.9h-45.2v27.8h53.1
	v20H248.9z M379,454.2c-12.2,0-22.5-4.2-30.9-12.5c-5-5-8.1-10.8-9.3-17.2c-1.3-6.4-1.9-15.9-1.9-28.5c0-12.6,0.6-22,1.9-28.5
	c1.3-6.6,4.3-12.2,9.3-17.2c8.4-8.4,18.7-12.6,30.9-12.6c22.1,0,38.3,12.9,42.2,36.2h-22.7c-2.4-9.8-8.5-16.2-19.3-16.2
	c-6.1,0-10.9,1.9-14.3,6c-4.6,5-5.6,10.1-5.6,32.3c0,22.2,1,27.3,5.6,32.3c3.4,4,8.2,5.9,14.3,5.9c10.8,0,16.9-6.4,19.3-16.2h22.7
	C417.3,441.4,400.9,454.2,379,454.2z M479.6,358.7v94.6h-22.4v-94.6h-29.9v-19.9h82.2v19.9H479.6z M575,453.3h-16.7l-37.8-114.5
	h23.1l23,74.6l23-74.6H613L575,453.3z M604,444.9h1.1c1.2,0,2.3-0.1,2.3-1.3c0-1-1-1.3-2-1.3H604V444.9z M602.5,441h3.4
	c2.1,0,3.1,0.8,3.1,2.6c0,1.8-1,2.5-2.3,2.6l2.6,3.6h-1.8l-2.5-3.6H604v3.6h-1.5V441z M605.3,451.8c3.5,0,6-2.5,6-6.1
	c0-3.6-2.5-6.1-6-6.1c-3.4,0-6,2.5-6,6.1C599.4,449.3,601.9,451.8,605.3,451.8z M605.3,438c4.3,0,7.7,3.4,7.7,7.6
	c0,4.2-3.4,7.7-7.7,7.7c-4.2,0-7.6-3.4-7.6-7.7C597.7,441.5,601.2,438,605.3,438z"/>
</svg>
