<?xml version="1.0" encoding="utf-8"?>
<!-- Generator: Adobe Illustrator 17.1.0, SVG Export Plug-In . SVG Version: 6.00 Build 0)  -->
<!DOCTYPE svg PUBLIC "-//W3C//DTD SVG 1.0//EN" "http://www.w3.org/TR/2001/REC-SVG-20010904/DTD/svg10.dtd">
<svg version="1.0" id="Layer_1" xmlns="http://www.w3.org/2000/svg" xmlns:xlink="http://www.w3.org/1999/xlink" x="0px" y="0px"
	 viewBox="0 0 612 792" enable-background="new 0 0 612 792" xml:space="preserve">
<path d="M306,226.3C107.2,226.3,2.9,372.8,2.9,396S107.2,565.7,306,565.7c198.8,0,303.1-146.5,303.1-169.7S504.8,226.3,306,226.3z
	 M306,526.6c-74.4,0-134.7-58.4-134.7-130.6c0-72.1,60.3-130.6,134.7-130.6c74.4,0,134.7,58.5,134.7,130.6
	C440.7,468.1,380.4,526.6,306,526.6z M306,396c-12.3-13.5,20.1-65.3,0-65.3c-37.2,0-67.3,29.2-67.3,65.3s30.1,65.3,67.3,65.3
	c37.2,0,67.4-29.2,67.4-65.3C373.4,379.4,316.5,407.5,306,396z"/>
</svg>
