<?xml version="1.0" encoding="utf-8"?>
<!-- Generator: Adobe Illustrator 17.1.0, SVG Export Plug-In . SVG Version: 6.00 Build 0)  -->
<!DOCTYPE svg PUBLIC "-//W3C//DTD SVG 1.1//EN" "http://www.w3.org/Graphics/SVG/1.1/DTD/svg11.dtd">
<svg version="1.1" id="Layer_1" xmlns="http://www.w3.org/2000/svg" xmlns:xlink="http://www.w3.org/1999/xlink" x="0px" y="0px"
	 viewBox="0 0 612 792" enable-background="new 0 0 612 792" xml:space="preserve">
<path fill-rule="evenodd" clip-rule="evenodd" d="M306,703C136.5,703-1,565.5-1,396S136.5,89,306,89c169.6,0,307,137.5,307,307
	S475.6,703,306,703z M306,146.6C168.2,146.6,56.6,258.2,56.6,396c0,64.4,24.6,122.9,64.7,167.2c36.1-17.5,22.9-2.9,70.1-22.4
	c48.4-19.9,59.8-26.8,59.8-26.8l0.4-45.9c0,0-18.1-13.7-23.7-56.9c-11.3,3.3-15.1-13.2-15.7-23.7c-0.6-10.1-6.6-41.7,7.3-38.9
	c-2.8-21.1-4.9-40.1-3.9-50.2c3.5-35.4,37.8-72.4,90.8-75.1c62.3,2.7,86.9,39.7,90.4,75.1c1,10.1-1.2,29.2-4,50.2
	c13.8-2.8,7.8,28.8,7.1,38.9c-0.6,10.5-4.4,26.9-15.7,23.7c-5.6,43.1-23.8,56.8-23.8,56.8l0.4,45.6c0,0,11.5,6.5,59.8,26.4
	c47.3,19.5,34,5.8,70.1,23.3c40.1-44.2,64.7-102.8,64.7-167.2C555.4,258.2,443.8,146.6,306,146.6z"/>
</svg>
