<?xml version="1.0" encoding="utf-8"?>
<!-- Generator: Adobe Illustrator 17.1.0, SVG Export Plug-In . SVG Version: 6.00 Build 0)  -->
<!DOCTYPE svg PUBLIC "-//W3C//DTD SVG 1.0//EN" "http://www.w3.org/TR/2001/REC-SVG-20010904/DTD/svg10.dtd">
<svg version="1.0" id="Layer_1" xmlns="http://www.w3.org/2000/svg" xmlns:xlink="http://www.w3.org/1999/xlink" x="0px" y="0px"
	 viewBox="0 0 36 36" enable-background="new 0 0 36 36" xml:space="preserve">
<g>
	<path d="M19.2,0h-2.5c-4.1,0-9,4.1-9,9l1.7,21.3c0,2.7,3,5.7,5.7,5.7h5.7c2.7,0,5.7-3,5.7-5.7L28.3,9C28.2,4.2,23.3,0,19.2,0z
		 M15.1,32.8c-0.9,0-1.7-0.8-1.7-1.7c0-0.9,0.8-1.7,1.7-1.7c0.9,0,1.7,0.8,1.7,1.7C16.7,32,16,32.8,15.1,32.8z M15.1,27.8
		c-0.9,0-1.7-0.8-1.7-1.7s0.8-1.7,1.7-1.7c0.9,0,1.7,0.8,1.7,1.7C16.7,27.1,16,27.8,15.1,27.8z M15.1,23c-0.9,0-1.7-0.8-1.7-1.7
		c0-0.9,0.8-1.7,1.7-1.7c0.9,0,1.7,0.8,1.7,1.7C16.7,22.2,16,23,15.1,23z M20.8,32.8c-0.9,0-1.7-0.8-1.7-1.7c0-0.9,0.8-1.7,1.7-1.7
		c0.9,0,1.7,0.8,1.7,1.7C22.4,32,21.8,32.8,20.8,32.8z M20.8,27.8c-0.9,0-1.7-0.8-1.7-1.7s0.8-1.7,1.7-1.7c0.9,0,1.7,0.8,1.7,1.7
		C22.4,27.1,21.8,27.8,20.8,27.8z M20.8,23c-0.9,0-1.7-0.8-1.7-1.7c0-0.9,0.8-1.7,1.7-1.7c0.9,0,1.7,0.8,1.7,1.7S21.8,23,20.8,23z
		 M17.7,17.8c-4.3,0-7.4-3-7.4-7.3s3.5-7.8,7.8-7.8s7.4,3,7.4,7.3C25.5,14.3,22,17.8,17.7,17.8z"/>
	<circle cx="17.9" cy="10.2" r="4.8"/>
</g>
</svg>
