<?xml version="1.0" encoding="utf-8"?>
<!-- Generator: Adobe Illustrator 17.1.0, SVG Export Plug-In . SVG Version: 6.00 Build 0)  -->
<!DOCTYPE svg PUBLIC "-//W3C//DTD SVG 1.0//EN" "http://www.w3.org/TR/2001/REC-SVG-20010904/DTD/svg10.dtd">
<svg version="1.0" id="Layer_1" xmlns="http://www.w3.org/2000/svg" xmlns:xlink="http://www.w3.org/1999/xlink" x="0px" y="0px"
	 viewBox="0 0 36 36" enable-background="new 0 0 36 36" xml:space="preserve">
<path d="M31.4,12.7c0.2-0.6,0.1-1-0.1-1.4c-0.2-0.3-0.5-0.7-0.9-0.9c0,0-0.1,0-0.1-0.1c-0.1-0.2-0.1-0.6-0.2-0.8
	c0.1-0.6,0.2-1,0.2-1.4c0-0.6-0.2-1-0.6-1.2c-0.3-0.3-0.7-0.5-1.1-0.6h-0.1C28.4,6.2,28.2,6,28,5.7c0-0.6-0.1-1.1-0.2-1.4
	c-0.5-1-1.4-1.2-2.3-1.1h-0.1c-0.2-0.1-0.5-0.3-0.7-0.5c-0.2-0.6-0.5-1-0.7-1.2c-0.8-0.8-1.8-0.7-2.5-0.3c0,0-0.1,0-0.1,0.1
	c-0.2-0.1-0.6-0.1-0.8-0.2c-0.5-0.5-0.8-0.8-1-0.9c-0.6-0.3-1-0.2-1.5-0.1c-0.5,0.1-0.8,0.3-1,0.7l-0.1,0.1c-0.3,0-0.6,0-0.8,0.1
	c-0.6-0.2-1-0.5-1.4-0.5c-0.6-0.1-1,0.1-1.4,0.3c-0.3,0.2-0.6,0.6-0.8,1V2c-0.2,0.1-0.6,0.2-0.8,0.3c-0.6,0-1.1,0-1.4,0
	c-0.6,0.1-0.9,0.5-1.2,0.8C9.3,3.5,9.1,3.9,9.1,4.3v0.1C8.9,4.6,8.8,4.7,8.6,4.9C8,5.1,7.6,5.3,7.2,5.4C6.8,5.7,6.6,6.1,6.3,6.5
	C6.2,7,6.3,7.3,6.4,7.8v0.1C6.3,8.1,6.2,8.3,6.1,8.7C5.7,9,5.2,9.3,5.1,9.6c-0.3,0.5-0.5,0.9-0.5,1.4s0.2,0.8,0.5,1.1
	c0,0,0,0.1,0.1,0.1c0,0.2,0,0.6,0,0.8c-0.3,0.5-0.6,0.9-0.7,1.2c-0.1,0.6-0.1,1,0.1,1.4c0.2,0.3,0.6,0.7,0.9,0.9c0,0,0.1,0,0.1,0.1
	c0.1,0.2,0.1,0.6,0.2,0.8c-0.1,0.6-0.2,1-0.2,1.4c0,0.6,0.2,1,0.6,1.2c0.3,0.3,0.7,0.5,1.1,0.6h0.1c0.1,0.2,0.3,0.5,0.5,0.7
	c0,0.5,0.1,0.8,0.2,1.1c-1.2,2.3-4.1,7.7-3.3,8.1C7,30.5,10,31.1,10,31.1s1.8,3.2,2.1,3.4c1.1-3.7,3-6.3,4.2-7.8l0,0
	c0.5,0.2,1,0.2,1.4,0.1l5,9.2l2.5-3.9l6-0.9c0,0-2.3-6.2-4.2-8.6l0,0c0.2-0.2,0.3-0.3,0.6-0.6c0.6-0.1,1.1-0.3,1.4-0.5
	c0.2-0.1,0.5-0.3,0.6-0.6s0.2-0.5,0.2-0.6c0.1-0.5,0.1-0.8-0.1-1.2v-0.1c0.1-0.2,0.2-0.5,0.3-0.8c0.5-0.3,0.9-0.7,1-0.9
	c0.2-0.2,0.3-0.5,0.3-0.7c0-0.2,0.1-0.5,0-0.7c0-0.5-0.2-0.8-0.5-1.1c0,0,0-0.1-0.1-0.1c0-0.2,0-0.6,0-0.8
	C31.1,13.5,31.3,13.1,31.4,12.7z M27.1,18.1c-0.7,0.2-1.4,0.5-1.5,1.4c0,0.2,0,0.6,0,1c-0.1,0.2-0.3,0.3-0.5,0.6c-0.1,0-0.1,0-0.2,0
	c-0.3,0-0.8,0-1,0.1c-0.3,0.1-0.6,0.2-0.8,0.7c-0.1,0.1-0.2,0.6-0.3,0.9c-0.2,0.1-0.5,0.2-0.7,0.3c-0.1,0-0.1,0-0.2-0.1
	c-0.3-0.1-0.7-0.2-1-0.2s-0.7,0.1-1,0.3c-0.1,0.1-0.3,0.5-0.7,0.8c-0.2,0-0.5,0-0.7,0.1l-0.1-0.1c-0.2-0.2-0.6-0.5-0.9-0.6
	c-0.3-0.1-0.7-0.1-1,0c-0.2,0.1-0.5,0.2-0.9,0.5c-0.2,0-0.5-0.1-0.7-0.2c0-0.1-0.1-0.1-0.1-0.2c-0.1-0.3-0.3-0.7-0.6-0.8
	c-0.2-0.2-0.6-0.3-1-0.3c-0.2,0-0.6,0.1-1,0.1c-0.2-0.1-0.5-0.2-0.6-0.5c0-0.1,0-0.1,0-0.2c0-0.3-0.1-0.7-0.2-1
	c-0.1-0.3-0.3-0.5-0.8-0.7c-0.2-0.1-0.6-0.1-1-0.2c-0.1-0.2-0.3-0.3-0.5-0.6c0-0.1,0-0.1,0-0.2c0.1-0.3,0.1-0.7,0.1-1
	c0-0.3-0.2-0.6-0.6-0.9c-0.1-0.1-0.5-0.3-0.9-0.6c-0.1-0.2-0.1-0.5-0.2-0.7c0.1,0.1,0.1,0,0.1,0c0.3-0.7,0.7-1.2,0.2-1.9
	c-0.1-0.1-0.3-0.5-0.7-0.8c0-0.2,0-0.5,0-0.7c0.1,0,0.1-0.1,0.2-0.1c0.6-0.5,1.1-0.9,0.9-1.7c0-0.2-0.2-0.6-0.3-1
	c0.1-0.2,0.2-0.5,0.3-0.7c0.1,0,0.1,0,0.2-0.1c0.7-0.2,1.4-0.5,1.5-1.4c0-0.2,0-0.6,0-1c0.1-0.2,0.3-0.3,0.6-0.6c0.1,0,0.1,0,0.2,0
	c0.8,0,1.4,0,1.8-0.8c0.1-0.2,0.2-0.6,0.3-0.9c0.2-0.1,0.5-0.2,0.7-0.3c0.1,0,0.1,0.1,0.2,0.1c0.3,0.1,0.7,0.2,1,0.2
	c0.3,0,0.7-0.1,1-0.3c0.1-0.1,0.2-0.2,0.5-0.5c0.1-0.1,0.2-0.2,0.2-0.3c0.2,0,0.5,0,0.7-0.1L17.5,3c0.2,0.2,0.6,0.5,0.9,0.6
	c0.3,0.1,0.7,0.1,1,0c0.1,0,0.3-0.1,0.6-0.3c0.1-0.1,0.2-0.1,0.3-0.2c0.2,0,0.5,0.1,0.7,0.2c0,0.1,0.1,0.1,0.1,0.2
	c0.2,0.3,0.3,0.6,0.6,0.8c0.2,0.2,0.6,0.3,1,0.3c0.1,0,0.3,0,0.6-0.1c0.1,0,0.2,0,0.5-0.1c0.2,0.1,0.5,0.2,0.6,0.5
	c0,0.1,0,0.1,0,0.2c0,0.3,0.1,0.7,0.2,1c0.1,0.2,0.5,0.5,0.8,0.7c0.1,0,0.3,0.1,0.6,0.1c0.1,0,0.2,0,0.5,0.1
	c0.1,0.2,0.3,0.3,0.5,0.6c0,0.1,0,0.1,0,0.2c-0.1,0.7-0.2,1.4,0.5,1.9c0.2,0.1,0.5,0.3,0.9,0.6c0.1,0.2,0.1,0.5,0.2,0.7
	c0,0.1-0.1,0.1-0.1,0.2c-0.5,0.7-0.7,1.2-0.2,1.9c0.1,0.1,0.3,0.5,0.7,0.8c0,0.2,0,0.5,0,0.7c-0.1,0-0.1,0.1-0.2,0.1
	c-0.6,0.5-1.1,0.9-0.9,1.7c0.1,0.2,0.2,0.6,0.3,1c-0.1,0.2-0.2,0.5-0.3,0.7C27.3,18,27.3,18,27.1,18.1z"/>
</svg>
