<?xml version="1.0" encoding="utf-8"?>
<!-- Generator: Adobe Illustrator 17.1.0, SVG Export Plug-In . SVG Version: 6.00 Build 0)  -->
<!DOCTYPE svg PUBLIC "-//W3C//DTD SVG 1.0//EN" "http://www.w3.org/TR/2001/REC-SVG-20010904/DTD/svg10.dtd">
<svg version="1.0" id="Layer_1" xmlns="http://www.w3.org/2000/svg" xmlns:xlink="http://www.w3.org/1999/xlink" x="0px" y="0px"
	 viewBox="0 0 36 36" enable-background="new 0 0 36 36" xml:space="preserve">
<path d="M34.6,30.6l-6.7-7c1.5-2.4,2.4-5.3,2.4-8.3C30.2,6.9,23.6,0,15.4,0S0.5,6.9,0.5,15.3s6.6,15.3,14.8,15.3l0,0
	c3,0,5.7-0.9,8.1-2.5l6.7,7c1.2,1.2,3.1,1.2,4.4,0C35.7,33.8,35.7,31.8,34.6,30.6z M15.4,27.4C8.9,27.4,3.6,22,3.6,15.3
	S8.9,3.1,15.4,3.1s11.8,5.4,11.8,12.1C27.2,22,21.9,27.4,15.4,27.4z"/>
</svg>
