<?xml version="1.0" encoding="utf-8"?>
<!-- Generator: Adobe Illustrator 17.1.0, SVG Export Plug-In . SVG Version: 6.00 Build 0)  -->
<!DOCTYPE svg PUBLIC "-//W3C//DTD SVG 1.0//EN" "http://www.w3.org/TR/2001/REC-SVG-20010904/DTD/svg10.dtd">
<svg version="1.0" id="Layer_1" xmlns="http://www.w3.org/2000/svg" xmlns:xlink="http://www.w3.org/1999/xlink" x="0px" y="0px"
	 viewBox="0 0 36 36" enable-background="new 0 0 36 36" xml:space="preserve">
<path d="M34.7,15.3l-3.6-0.6c-0.3-1.1-0.6-2.1-1.1-3l2.3-2.8c0.5-0.6,0.5-1.5,0-2l-1.4-1.6c-0.5-0.6-1.4-0.7-2-0.3l-3,1.9
	c-1.3-0.9-2.9-1.6-4.5-2l-0.6-3.6C20.7,0.5,20,0,19.2,0H17c-0.8,0-1.4,0.6-1.6,1.3l-0.6,3.6c-1.4,0.3-2.6,0.9-3.8,1.6L8.1,4.4
	C7.5,4,6.6,4,6.1,4.6L4.6,6.1C4.1,6.6,4,7.5,4.4,8.1L6.5,11c-0.7,1.2-1.2,2.4-1.6,3.8l-3.6,0.6C0.5,15.5,0,16.2,0,17v2.1
	c0,0.8,0.6,1.4,1.3,1.6l3.6,0.6c0.3,1.1,0.7,2.2,1.2,3.1l-2.3,2.8c-0.5,0.6-0.5,1.5,0,2l1.4,1.6c0.5,0.6,1.4,0.7,2,0.3l3.1-1.9
	c1.3,0.9,2.8,1.6,4.4,1.9l0.6,3.6c0.1,0.8,0.8,1.3,1.6,1.3h2.1c0.8,0,1.4-0.6,1.6-1.3l0.6-3.6c1.3-0.3,2.6-0.9,3.7-1.5l3,2.2
	c0.6,0.4,1.5,0.4,2-0.2l1.5-1.5c0.5-0.5,0.6-1.4,0.2-2l-2.2-3c0.7-1.2,1.2-2.4,1.6-3.8l3.6-0.6c0.8-0.1,1.3-0.8,1.3-1.6V17
	C36,16.1,35.4,15.4,34.7,15.3z M18.1,24.7c-3.7,0-6.8-3-6.8-6.8c0-3.7,3-6.8,6.8-6.8c3.7,0,6.8,3,6.8,6.8
	C24.8,21.6,21.8,24.7,18.1,24.7z"/>
</svg>
