<?xml version="1.0" encoding="utf-8"?>
<!-- Generator: Adobe Illustrator 17.1.0, SVG Export Plug-In . SVG Version: 6.00 Build 0)  -->
<!DOCTYPE svg PUBLIC "-//W3C//DTD SVG 1.0//EN" "http://www.w3.org/TR/2001/REC-SVG-20010904/DTD/svg10.dtd">
<svg version="1.0" id="Layer_1" xmlns="http://www.w3.org/2000/svg" xmlns:xlink="http://www.w3.org/1999/xlink" x="0px" y="0px"
	 viewBox="0 0 36 36" enable-background="new 0 0 36 36" xml:space="preserve">
<path d="M3.6,7.2H0v25.5C0,34.5,1.5,36,3.3,36H30v-3.6H3.6V7.2z M32.7,0H10.8C9,0,7.2,1.8,7.2,3.6v22.8c0,1.8,0.6,3.6,2.4,3.6h22.8
	c1.8,0,3.6-2,3.6-3.8v-23C36,1.5,34.5,0,32.7,0z M28.8,16.8h-6l0.1,6.1l-3.7-0.1v-6h-6l-0.1-3.7l6.1,0.1v-6h3.6l0.1,5.9l5.9,0.1
	L28.8,16.8L28.8,16.8z"/>
</svg>
